<svg width="18" height="16" viewBox="0 0 18 16" fill="none" xmlns="http://www.w3.org/2000/svg">
<path d="M1.616 16C1.15533 16 0.771 15.846 0.463 15.538C0.155 15.23 0.000666667 14.8453 0 14.384V1.616C0 1.15533 0.154333 0.771 0.463 0.463C0.771667 0.155 1.15567 0.000666667 1.615 0H16.385C16.845 0 17.229 0.154333 17.537 0.463C17.845 0.771667 17.9993 1.156 18 1.616V14.385C18 14.845 17.8457 15.2293 17.537 15.538C17.2283 15.8467 16.8443 16.0007 16.385 16H1.616ZM2.5 12.5H6.5V11.5H2.5V12.5ZM11.55 10.289L15.788 6.05L15.075 5.336L11.55 8.886L10.125 7.462L9.437 8.175L11.55 10.289ZM2.5 8.5H6.5V7.5H2.5V8.5ZM2.5 4.5H6.5V3.5H2.5V4.5Z" fill="#B09CFF"/>
</svg>
