<svg width="24" height="24" viewBox="0 0 24 24" fill="none" xmlns="http://www.w3.org/2000/svg">
<path d="M5.00027 13.1793V15.9893C5.00027 16.7193 5.40027 17.3993 6.04027 17.7493L11.0403 20.4793C11.6403 20.8093 12.3603 20.8093 12.9603 20.4793L17.9603 17.7493C18.6003 17.3993 19.0003 16.7193 19.0003 15.9893V13.1793L12.9603 16.4793C12.3603 16.8093 11.6403 16.8093 11.0403 16.4793L5.00027 13.1793ZM11.0403 3.5193L2.61027 8.1193C1.92027 8.4993 1.92027 9.4993 2.61027 9.8793L11.0403 14.4793C11.6403 14.8093 12.3603 14.8093 12.9603 14.4793L21.0003 10.0893V15.9993C21.0003 16.5493 21.4503 16.9993 22.0003 16.9993C22.5503 16.9993 23.0003 16.5493 23.0003 15.9993V9.5893C23.0003 9.2193 22.8003 8.8893 22.4803 8.7093L12.9603 3.5193C12.6648 3.36172 12.3351 3.2793 12.0003 3.2793C11.6654 3.2793 11.3357 3.36172 11.0403 3.5193Z" fill="#B09CFF"/>
</svg>
